<mxfile host="app.diagrams.net" modified="2023-01-30T07:50:12.424Z" agent="5.0 (Windows NT 10.0; Win64; x64) AppleWebKit/537.36 (KHTML, like Gecko) Chrome/109.0.0.0 Safari/537.36 Edg/109.0.1518.55" etag="dW_Ieyr3GqQzVIFfCO-l" version="20.8.13" type="github">
  <diagram name="第 1 页" id="f7xJq4EvaZuQjRa25Gan">
    <mxGraphModel dx="1941" dy="594" grid="1" gridSize="10" guides="1" tooltips="1" connect="1" arrows="1" fold="1" page="1" pageScale="1" pageWidth="827" pageHeight="1169" math="0" shadow="0">
      <root>
        <mxCell id="0" />
        <mxCell id="1" parent="0" />
        <mxCell id="EU7Fr2xRHALKJtLmDJ7w-4" value="" style="rounded=0;whiteSpace=wrap;html=1;fontSize=18;" vertex="1" parent="1">
          <mxGeometry x="-140" y="290" width="180" height="180" as="geometry" />
        </mxCell>
        <mxCell id="EU7Fr2xRHALKJtLmDJ7w-5" value="index.js" style="text;html=1;strokeColor=none;fillColor=none;align=center;verticalAlign=middle;whiteSpace=wrap;rounded=0;fontSize=18;" vertex="1" parent="1">
          <mxGeometry x="-130" y="300" width="60" height="30" as="geometry" />
        </mxCell>
        <mxCell id="EU7Fr2xRHALKJtLmDJ7w-9" value="" style="rounded=0;whiteSpace=wrap;html=1;fontSize=18;" vertex="1" parent="1">
          <mxGeometry x="-130" y="40" width="180" height="180" as="geometry" />
        </mxCell>
        <mxCell id="EU7Fr2xRHALKJtLmDJ7w-8" value="&lt;font style=&quot;font-size: 16px;&quot;&gt;1.向外导出initMixin方法&lt;br&gt;2.该方法在Vue的原型对象上，挂载&lt;/font&gt;_init和$mount方法" style="text;html=1;strokeColor=none;fillColor=none;align=left;verticalAlign=middle;whiteSpace=wrap;rounded=0;fontSize=18;" vertex="1" parent="1">
          <mxGeometry x="-118" y="100" width="160" height="90" as="geometry" />
        </mxCell>
        <mxCell id="EU7Fr2xRHALKJtLmDJ7w-10" value="init.js" style="text;html=1;strokeColor=none;fillColor=none;align=center;verticalAlign=middle;whiteSpace=wrap;rounded=0;fontSize=18;" vertex="1" parent="1">
          <mxGeometry x="-120" y="50" width="60" height="30" as="geometry" />
        </mxCell>
        <mxCell id="EU7Fr2xRHALKJtLmDJ7w-14" value="&lt;font style=&quot;font-size: 18px;&quot;&gt;initMixin&lt;/font&gt;" style="rounded=1;whiteSpace=wrap;html=1;fontSize=16;" vertex="1" parent="1">
          <mxGeometry x="90" y="105" width="100" height="50" as="geometry" />
        </mxCell>
        <mxCell id="EU7Fr2xRHALKJtLmDJ7w-20" value="&lt;font style=&quot;font-size: 18px;&quot;&gt;_init&lt;/font&gt;" style="rounded=1;whiteSpace=wrap;html=1;fontSize=16;" vertex="1" parent="1">
          <mxGeometry x="240" y="40" width="100" height="50" as="geometry" />
        </mxCell>
        <mxCell id="EU7Fr2xRHALKJtLmDJ7w-22" value="&lt;font style=&quot;font-size: 18px;&quot;&gt;$mount&lt;/font&gt;" style="rounded=1;whiteSpace=wrap;html=1;fontSize=16;" vertex="1" parent="1">
          <mxGeometry x="240" y="150" width="100" height="50" as="geometry" />
        </mxCell>
      </root>
    </mxGraphModel>
  </diagram>
</mxfile>
